<svg width="91" height="67" viewBox="0 0 91 67" fill="none" xmlns="http://www.w3.org/2000/svg">
<path d="M6.44141 9.83614C6.44141 8.89757 7.20271 8.13672 8.14184 8.13672H77.6934C78.6326 8.13672 79.3939 8.89757 79.3939 9.83614V50.6327C79.3939 51.8089 78.4404 52.7624 77.2643 52.7624H8.57108C7.39489 52.7624 6.44141 51.8089 6.44141 50.6327V9.83614Z" fill="#93BEFF"/>
<path d="M8.2832 11.9958C8.2832 11.0572 9.04451 10.2964 9.98364 10.2964H76.0532C76.9921 10.2964 77.7535 11.0572 77.7535 11.9958V49.8785H8.2832V11.9958Z" fill="white"/>
<path d="M19.0674 14.5615C19.0674 14.4051 19.1943 14.2783 19.3508 14.2783H46.2048C46.5958 14.2783 46.9131 14.5953 46.9131 14.9864V33.1394C46.9131 33.5305 46.5958 33.8475 46.2048 33.8475H19.3508C19.1943 33.8475 19.0674 33.7208 19.0674 33.5643V14.5615Z" fill="#0066FF"/>
<path d="M18.0615 13.6602C18.0615 13.5037 18.1884 13.377 18.3449 13.377H45.1987C45.59 13.377 45.9073 13.694 45.9073 14.085V32.238C45.9073 32.6291 45.59 32.9461 45.1987 32.9461H18.3449C18.1884 32.9461 18.0615 32.8194 18.0615 32.6629V13.6602Z" fill="#CCE0FF"/>
<path d="M21.1934 17.1812C21.1934 17.1114 21.25 17.0547 21.32 17.0547C21.3899 17.0547 21.4466 17.1114 21.4466 17.1812V29.2445C21.4466 29.3145 21.3899 29.3712 21.32 29.3712C21.25 29.3712 21.1934 29.3145 21.1934 29.2445V17.1812Z" fill="white"/>
<path d="M21.32 29.3713C21.25 29.3713 21.1934 29.3146 21.1934 29.2449C21.1934 29.1749 21.25 29.1182 21.32 29.1182H43.4354C43.5054 29.1182 43.5621 29.1749 43.5621 29.2449C43.5621 29.3146 43.5054 29.3713 43.4354 29.3713H21.32Z" fill="white"/>
<path d="M37.8213 20.1763C37.8213 19.9899 37.9725 19.8389 38.1588 19.8389H38.7498C38.9362 19.8389 39.0874 19.99 39.0874 20.1763V28.1904C39.0874 28.3768 38.9362 28.528 38.7498 28.528H38.1588C37.9725 28.528 37.8213 28.3768 37.8213 28.1904V20.1763Z" fill="#0066FF"/>
<path d="M34.0234 21.8623C34.0234 21.676 34.1746 21.5249 34.361 21.5249H34.952C35.1383 21.5249 35.2895 21.676 35.2895 21.8623V28.1892C35.2895 28.3755 35.1383 28.5267 34.952 28.5267H34.361C34.1746 28.5267 34.0234 28.3755 34.0234 28.1892V21.8623Z" fill="white"/>
<path d="M30.2256 25.2373C30.2256 25.051 30.3765 24.8999 30.5631 24.8999H31.1539C31.3405 24.8999 31.4917 25.051 31.4917 25.2373V28.19C31.4917 28.3764 31.3405 28.5276 31.1539 28.5276H30.5631C30.3765 28.5276 30.2256 28.3764 30.2256 28.19V25.2373Z" fill="#0066FF"/>
<path d="M26.5957 21.357C26.5957 21.1706 26.7469 21.0195 26.9333 21.0195H27.5242C27.7108 21.0195 27.862 21.1706 27.862 21.357V28.19C27.862 28.3763 27.7108 28.5275 27.5242 28.5275H26.9333C26.7469 28.5275 26.5957 28.3763 26.5957 28.19V21.357Z" fill="white"/>
<path d="M22.7969 23.8028C22.7969 23.6164 22.948 23.4653 23.1345 23.4653H23.7254C23.9119 23.4653 24.063 23.6164 24.063 23.8028V28.3584C24.063 28.5447 23.9119 28.6959 23.7254 28.6959H23.1345C22.948 28.6959 22.7969 28.5447 22.7969 28.3584V23.8028Z" fill="#0066FF"/>
<path d="M41.6201 18.4043C41.6201 18.218 41.7713 18.0669 41.9579 18.0669H42.5487C42.7353 18.0669 42.8862 18.218 42.8862 18.4043V28.1899C42.8862 28.3763 42.7353 28.5275 42.5487 28.5275H41.9579C41.7713 28.5275 41.6201 28.3763 41.6201 28.1899V18.4043Z" fill="white"/>
<path d="M42.5493 17.3076C42.5493 17.494 42.3981 17.6451 42.2115 17.6451C42.1151 17.6451 42.0281 17.6047 41.9666 17.5399L38.8341 19.0525C38.8346 19.0613 38.8352 19.0703 38.8352 19.0793C38.8352 19.2656 38.684 19.4167 38.4973 19.4167C38.406 19.4167 38.323 19.3803 38.262 19.3212L35.0313 20.7921C35.0348 20.8112 35.0364 20.8308 35.0364 20.8509C35.0364 21.0372 34.8854 21.1883 34.6988 21.1883C34.6336 21.1883 34.5724 21.1697 34.5207 21.1376L31.3057 24.2046C31.3164 24.2376 31.3222 24.2728 31.3222 24.3094C31.3222 24.4958 31.171 24.6469 30.9847 24.6469C30.7983 24.6469 30.6471 24.4958 30.6471 24.3094C30.6471 24.2547 30.6602 24.203 30.6833 24.1573L27.3829 20.1178C27.3653 20.0962 27.3451 20.0779 27.3231 20.0629C27.2814 20.0813 27.2352 20.0916 27.1866 20.0916C27.1278 20.0916 27.0725 20.0766 27.0243 20.0501C27.0151 20.0553 27.0062 20.061 26.9974 20.0673L23.8008 22.3746C23.8068 22.3999 23.8101 22.4263 23.8101 22.4535C23.8101 22.6398 23.6589 22.7909 23.4724 22.7909C23.2859 22.7909 23.1348 22.6398 23.1348 22.4535C23.1348 22.2671 23.2859 22.116 23.4724 22.116C23.5704 22.116 23.6587 22.1578 23.7204 22.2245L26.8987 19.9305C26.8672 19.8792 26.849 19.8188 26.849 19.7541C26.849 19.5678 27.0001 19.4167 27.1866 19.4167C27.3731 19.4167 27.5243 19.5678 27.5243 19.7541C27.5243 19.8265 27.5014 19.8936 27.4626 19.9486L30.7965 24.0292C30.8502 23.9931 30.9149 23.972 30.9847 23.972C31.0725 23.972 31.1524 24.0055 31.2125 24.0603L31.2144 24.0584L34.4041 21.0156C34.3767 20.9669 34.3613 20.9107 34.3613 20.8509C34.3613 20.6645 34.5125 20.5134 34.6988 20.5134C34.8048 20.5134 34.8995 20.5622 34.9613 20.6386L38.1739 19.176C38.1649 19.1453 38.1598 19.1129 38.1598 19.0793C38.1598 18.8929 38.311 18.7418 38.4973 18.7418C38.6147 18.7418 38.7178 18.8015 38.7785 18.892L41.8846 17.3922C41.8777 17.3652 41.8739 17.3368 41.8739 17.3076C41.8739 17.1213 42.0252 16.9702 42.2115 16.9702C42.3981 16.9702 42.5493 17.1213 42.5493 17.3076Z" fill="#0066FF"/>
<path d="M53.2236 35.7139C53.2236 36.105 53.541 36.422 53.9323 36.422H75.6249C76.0162 36.422 76.3335 36.105 76.3335 35.7139V23.2335C76.3335 22.8424 76.0162 22.5254 75.6249 22.5254H53.9323C53.541 22.5254 53.2236 22.8424 53.2236 23.2335V35.7139Z" fill="#2C74F5"/>
<path d="M52.4248 34.916C52.4248 35.3071 52.7421 35.6242 53.1335 35.6242H74.826C75.2174 35.6242 75.5347 35.3071 75.5347 34.916V22.4356C75.5347 22.0446 75.2174 21.7275 74.826 21.7275H53.1335C52.7421 21.7275 52.4248 22.0446 52.4248 22.4356V34.916Z" fill="#E4EAFF"/>
<path d="M56.7066 28.7199C56.6443 28.7835 56.5761 28.8154 56.5021 28.8154C56.3874 28.8154 56.2966 28.7694 56.2303 28.6775C56.1646 28.5846 56.1318 28.4614 56.1318 28.307C56.1318 28.2074 56.1505 28.1166 56.1877 28.0344C56.225 27.9513 56.2769 27.8869 56.3435 27.8414C56.4106 27.7956 56.4854 27.7729 56.5676 27.7729C56.6528 27.7729 56.7284 27.7982 56.795 27.8486C56.8612 27.8991 56.9129 27.9718 56.9496 28.0663C56.9861 28.1606 57.0045 28.2676 57.0045 28.3879V28.4949C57.0045 28.7521 56.9478 28.9533 56.8344 29.0984C56.7215 29.243 56.5615 29.3167 56.3539 29.3194H56.3238V29.0665H56.3435C56.4582 29.0657 56.5445 29.0358 56.602 28.9773C56.66 28.9184 56.6949 28.8327 56.7066 28.7199ZM56.5769 28.5852C56.6336 28.5852 56.6784 28.5463 56.7108 28.4688V28.3341C56.7108 28.2351 56.6973 28.1576 56.6704 28.1017C56.6435 28.045 56.6083 28.0165 56.5655 28.0165C56.5234 28.0165 56.4891 28.0447 56.4627 28.1007C56.4372 28.156 56.4244 28.2236 56.4244 28.304C56.4244 28.3911 56.438 28.46 56.4649 28.5103C56.4917 28.5601 56.5293 28.5852 56.5769 28.5852Z" fill="#0066FF"/>
<path d="M58.3018 28.6794C58.3018 28.8884 58.2637 29.0481 58.1876 29.1586C58.1122 29.2693 58.0042 29.3247 57.8639 29.3247C57.7246 29.3247 57.6171 29.2712 57.541 29.1639C57.4656 29.0561 57.4265 28.9017 57.4238 28.7012V28.4161C57.4238 28.2079 57.4614 28.0487 57.5367 27.9388C57.6123 27.8283 57.7207 27.7729 57.8617 27.7729C58.0028 27.7729 58.1112 27.8275 58.1865 27.9367C58.2619 28.0461 58.3005 28.2021 58.3018 28.4047V28.6794ZM58.0071 28.3735C58.0071 28.2545 57.9951 28.1653 57.9717 28.106C57.9483 28.0463 57.9115 28.0165 57.8617 28.0165C57.7683 28.0165 57.7199 28.1257 57.7164 28.3434V28.7199C57.7164 28.8415 57.7281 28.9323 57.7515 28.9917C57.7758 29.0513 57.8133 29.0808 57.8639 29.0808C57.9115 29.0808 57.9467 29.0532 57.9696 28.998C57.9932 28.9419 58.0055 28.8564 58.0071 28.7417V28.3735Z" fill="#0066FF"/>
<path d="M58.7139 28.0837C58.7139 27.9916 58.7392 27.9166 58.7895 27.8585C58.8408 27.8005 58.9095 27.7715 58.996 27.7715C59.0826 27.7715 59.1515 27.8002 59.2026 27.8575C59.2545 27.9142 59.2806 27.9911 59.2806 28.0877V28.1636C59.2806 28.2568 59.2548 28.3319 59.2037 28.3886C59.1526 28.4453 59.0839 28.4737 58.9982 28.4737C58.913 28.4737 58.8443 28.4453 58.7916 28.3886C58.7397 28.3319 58.7139 28.2549 58.7139 28.1572V28.0837ZM58.9047 28.1636C58.9047 28.2051 58.9135 28.2381 58.9308 28.2632C58.9487 28.2874 58.9713 28.2994 58.9982 28.2994C59.0259 28.2994 59.0477 28.2866 59.0637 28.261C59.0802 28.2355 59.0884 28.2019 59.0884 28.1604V28.0837C59.0884 28.0436 59.0802 28.0108 59.0637 27.9853C59.0469 27.9589 59.0245 27.9456 58.996 27.9456C58.9684 27.9456 58.9463 27.9589 58.9298 27.9853C58.913 28.0108 58.9047 28.0446 58.9047 28.0867V28.1636ZM59.3096 28.9332C59.3096 28.8398 59.3355 28.7647 59.3874 28.708C59.4393 28.6508 59.5077 28.622 59.5929 28.622C59.6786 28.622 59.7476 28.6502 59.7995 28.7072C59.8514 28.7631 59.8772 28.8403 59.8772 28.9383V29.0141C59.8772 29.1068 59.8519 29.1819 59.8016 29.2391C59.751 29.2958 59.6821 29.3243 59.595 29.3243C59.5072 29.3243 59.4377 29.2955 59.3863 29.2383C59.3352 29.1808 59.3096 29.1047 59.3096 29.0099V28.9332ZM59.5016 29.0141C59.5016 29.0527 59.5106 29.0852 59.5285 29.1116C59.5471 29.1379 59.5695 29.151 59.595 29.151C59.6525 29.151 59.6826 29.11 59.6853 29.0277V28.9332C59.6853 28.8925 59.6767 28.8595 59.6594 28.8347C59.6427 28.8092 59.6206 28.7964 59.5929 28.7964C59.5319 28.7964 59.5016 28.8491 59.5016 28.955V29.0141ZM59.0512 29.1904L58.9119 29.1116L59.5317 27.9312L59.6717 28.01L59.0512 29.1904Z" fill="#0066FF"/>
<path d="M67.6768 27.7783V28.0272H67.6603C67.5501 28.028 67.4625 28.061 67.3975 28.1268C67.3331 28.1917 67.2942 28.2831 67.2804 28.4007C67.3432 28.3286 67.422 28.2926 67.5168 28.2926C67.6262 28.2926 67.7135 28.3395 67.7785 28.4327C67.8442 28.5261 67.877 28.6507 67.877 28.8062C67.877 28.9052 67.8583 28.9944 67.8211 29.0737C67.7835 29.1533 67.7311 29.2153 67.6632 29.2595C67.5961 29.3032 67.52 29.3247 67.4348 29.3247C67.298 29.3247 67.188 29.2699 67.105 29.1599C67.0224 29.05 66.9814 28.902 66.9814 28.7159V28.607C66.9814 28.4404 67.0073 28.2945 67.0592 28.1694C67.1119 28.0443 67.1872 27.9479 67.2855 27.8811C67.3845 27.8132 67.4998 27.7789 67.631 27.7783H67.6768ZM67.4247 28.5354C67.3871 28.5354 67.3557 28.5471 67.3302 28.5708C67.3052 28.5942 67.2865 28.6233 67.274 28.6579V28.7636C67.274 28.87 67.2881 28.9496 67.3166 29.0023C67.3451 29.0548 67.3824 29.0811 67.4287 29.0811C67.4758 29.0811 67.5133 29.0559 67.5418 29.0053C67.5703 28.9542 67.5844 28.8889 67.5844 28.8093C67.5844 28.7284 67.5695 28.6627 67.5397 28.6124C67.5107 28.561 67.4723 28.5354 67.4247 28.5354Z" fill="#0066FF"/>
<path d="M69.1426 28.6797C69.1426 28.8884 69.1045 29.0481 69.0284 29.1588C68.9531 29.2696 68.845 29.3247 68.7047 29.3247C68.5655 29.3247 68.4579 29.2712 68.3818 29.1639C68.3064 29.0561 68.2673 28.9019 68.2646 28.7015V28.4161C68.2646 28.2079 68.3022 28.049 68.3778 27.9391C68.4531 27.8283 68.5615 27.7729 68.7026 27.7729C68.8437 27.7729 68.952 27.8275 69.0273 27.9369C69.1029 28.0461 69.1413 28.2021 69.1426 28.4047V28.6797ZM68.8479 28.3735C68.8479 28.2548 68.8362 28.1653 68.8125 28.106C68.7891 28.0466 68.7523 28.0168 68.7026 28.0168C68.6091 28.0168 68.5607 28.1257 68.5572 28.3434V28.7201C68.5572 28.8418 68.5689 28.9323 68.5926 28.9919C68.6168 29.0513 68.6541 29.0811 68.7047 29.0811C68.7523 29.0811 68.7878 29.0534 68.8104 28.998C68.8341 28.9421 68.8466 28.8567 68.8479 28.742V28.3735Z" fill="#0066FF"/>
<path d="M69.5547 28.0837C69.5547 27.9919 69.58 27.9168 69.6306 27.8588C69.6817 27.8005 69.7506 27.7715 69.8371 27.7715C69.9234 27.7715 69.9923 27.8002 70.0434 27.8577C70.0954 27.9144 70.1214 27.9911 70.1214 28.088V28.1636C70.1214 28.257 70.0959 28.3321 70.0445 28.3888C69.9934 28.4455 69.925 28.4737 69.839 28.4737C69.7541 28.4737 69.6851 28.4455 69.6324 28.3888C69.5808 28.3321 69.5547 28.2549 69.5547 28.1575V28.0837ZM69.7456 28.1636C69.7456 28.2051 69.7543 28.2384 69.7716 28.2632C69.7895 28.2874 69.8121 28.2996 69.839 28.2996C69.8667 28.2996 69.8885 28.2869 69.9045 28.2613C69.921 28.2355 69.9295 28.2019 69.9295 28.1607V28.0837C69.9295 28.0438 69.921 28.0108 69.9045 27.9853C69.888 27.9589 69.8654 27.9459 69.8371 27.9459C69.8094 27.9459 69.7871 27.9589 69.7706 27.9853C69.7541 28.0108 69.7456 28.0446 69.7456 28.0869V28.1636ZM70.1505 28.9332C70.1505 28.84 70.1763 28.765 70.2282 28.7083C70.2801 28.6508 70.3488 28.6223 70.4337 28.6223C70.5197 28.6223 70.5884 28.6505 70.6403 28.7072C70.6922 28.7631 70.7183 28.8403 70.7183 28.9385V29.0141C70.7183 29.1068 70.693 29.1819 70.6424 29.2394C70.5918 29.2961 70.5232 29.3243 70.4358 29.3243C70.348 29.3243 70.2785 29.2958 70.2271 29.2383C70.176 29.1808 70.1505 29.1049 70.1505 29.0102V28.9332ZM70.3424 29.0141C70.3424 29.053 70.3515 29.0855 70.3696 29.1118C70.3882 29.1379 70.4103 29.1512 70.4358 29.1512C70.4933 29.1512 70.5234 29.11 70.5261 29.0277V28.9332C70.5261 28.8925 70.5176 28.8597 70.5003 28.8347C70.4835 28.8092 70.4614 28.7964 70.4337 28.7964C70.373 28.7964 70.3424 28.8494 70.3424 28.955V29.0141ZM69.892 29.1906L69.753 29.1118L70.3725 27.9312L70.5128 28.0103L69.892 29.1906Z" fill="#0066FF"/>
<path fill-rule="evenodd" clip-rule="evenodd" d="M68.9736 24.3922C71.3404 24.3922 73.2593 26.3097 73.2593 28.6752C73.2593 31.0404 71.3404 32.9582 68.9736 32.9582C66.6067 32.9582 64.6881 31.0404 64.6881 28.6752C64.6881 26.3097 66.6067 24.3922 68.9736 24.3922ZM68.9736 23.6841C71.7318 23.6841 73.9677 25.9187 73.9677 28.6752C73.9677 31.4315 71.7318 33.666 68.9736 33.666C66.2156 33.666 63.9795 31.4315 63.9795 28.6752C63.9795 25.9187 66.2156 23.6841 68.9736 23.6841Z" fill="white"/>
<path fill-rule="evenodd" clip-rule="evenodd" d="M58.0058 24.3922C60.3727 24.3922 62.2915 26.3097 62.2915 28.6752C62.2915 31.0404 60.3727 32.9582 58.0058 32.9582C55.6389 32.9582 53.7204 31.0404 53.7204 28.6752C53.7204 26.3097 55.6389 24.3922 58.0058 24.3922ZM58.0058 23.6841C60.764 23.6841 62.9999 25.9187 62.9999 28.6752C62.9999 31.4315 60.764 33.666 58.0058 33.666C55.2476 33.666 53.0117 31.4315 53.0117 28.6752C53.0117 25.9187 55.2476 23.6841 58.0058 23.6841Z" fill="white"/>
<path d="M75.0627 40.1697C74.2311 40.4894 74.295 40.9369 74.4869 41.3844L76.5341 46.4991H83.6347L85.6177 41.3844C85.9377 40.6813 85.6177 40.4705 85.106 40.1697C84.0186 39.5305 78.389 38.8914 75.0627 40.1697Z" fill="#2C74F5"/>
<path d="M76.6611 39.0191C76.6611 40.2338 77.3008 44.5174 78.0044 46.3713H82.4823C82.802 45.8599 83.5554 41.6405 84.0814 39.275C84.2095 38.6997 83.8895 38.6821 83.3779 38.6355C82.6743 38.5716 78.7719 38.4438 77.6206 38.4438C76.8017 38.4438 76.6611 38.6629 76.6611 39.0191Z" fill="#0066FF"/>
<path d="M83.6339 47.3301C84.7214 50.6545 89.647 52.1889 90.0948 59.413C90.0948 62.9196 88.6791 64.75 85.9369 65.6666C83.9792 66.3209 81.3456 66.5094 78.0685 66.5094C71.4796 66.1258 68.4091 63.8883 68.1533 59.413C69.1127 52.7003 76.5333 48.4809 76.5333 47.3301H83.6339Z" fill="#0066FF" stroke="#2C74F5" stroke-width="0.266209"/>
<path d="M90.0945 59.413C89.6468 52.1889 84.7211 50.6545 83.6334 47.3301C81.8423 51.0381 71.2874 55.4495 77.4925 63.1211C78.5783 64.4636 82.6101 66.7314 85.9363 65.6666C88.6788 64.75 90.0945 62.9196 90.0945 59.413Z" fill="#2C74F5"/>
<path fill-rule="evenodd" clip-rule="evenodd" d="M79.4487 53.2714C79.4487 53.0262 79.2525 52.8276 79.0103 52.8276C78.7677 52.8276 78.5715 53.0262 78.5715 53.2714V54.361C78.1839 54.4566 77.8517 54.6706 77.6079 54.9544C77.2509 55.3702 77.0776 55.9463 77.2125 56.5186C77.3499 57.1014 77.7881 57.6066 78.5108 57.9189C78.5313 57.9279 78.5516 57.9367 78.5715 57.9455V59.6327C78.3479 59.494 78.1118 59.2984 77.8735 59.0314C77.7114 58.8496 77.434 58.8352 77.2541 58.9992C77.0744 59.1634 77.06 59.4437 77.2224 59.6258C77.6561 60.1119 78.1182 60.4391 78.5715 60.6244V61.846C78.5715 62.0909 78.7677 62.2895 79.0103 62.2895C79.2525 62.2895 79.4487 62.0909 79.4487 61.846V60.8107C79.958 60.816 80.4228 60.6318 80.7217 60.273C81.0939 59.8263 81.1277 59.2065 80.804 58.6254C80.5577 58.1832 80.1102 57.7624 79.4487 57.3939V55.2685C79.741 55.3707 80.0796 55.588 80.439 55.9907C80.6014 56.1726 80.8788 56.1869 81.0587 56.0229C81.2384 55.8587 81.2528 55.5784 81.0904 55.3966C80.5607 54.8032 79.9976 54.4643 79.4487 54.3501V53.2714ZM78.5715 55.2997C78.4536 55.3593 78.3522 55.4405 78.2705 55.5358C78.0799 55.7578 78.0029 56.0458 78.066 56.3128C78.1139 56.5162 78.2548 56.7526 78.5715 56.9544V55.2997ZM79.4487 58.4401V59.924C79.7495 59.9304 79.9516 59.8207 80.0506 59.7017C80.1515 59.5806 80.2125 59.3708 80.0394 59.0607C79.9369 58.8762 79.7508 58.6616 79.4487 58.4401Z" fill="white"/>
<path d="M83.4425 46.4352C82.1631 46.2436 78.6449 46.1807 76.5978 46.4352C75.8942 46.5225 75.9581 47.6502 76.5978 47.7141C78.1972 47.9058 81.8434 47.9058 83.4425 47.6502C84.2036 47.5285 84.2742 46.5595 83.4425 46.4352Z" fill="white"/>
<path d="M69.5446 63.3662C66.9816 65.7789 63.2932 66.0264 61.3065 63.9189C59.3198 61.8108 59.733 58.2199 62.296 55.8069C65.6292 52.6691 68.6012 53.073 70.5882 55.1808C72.5749 57.2884 72.1077 60.9533 69.5446 63.3662Z" fill="#FFC234"/>
<path d="M68.8375 63.1863C66.2744 65.5989 62.5861 65.8465 60.5994 63.7387C58.6127 61.6308 59.0799 57.9659 61.6429 55.553C64.2063 53.1403 67.8941 52.8928 69.881 55.0006C71.8678 57.1085 71.4006 60.7734 68.8375 63.1863Z" fill="#FFCE5B"/>
<path d="M68.3877 55.0786L61.002 62.4129L62.0133 63.4709L69.3521 56.0189L68.3877 55.0786Z" fill="#FFC234"/>
<path d="M67.7765 54.9376L60.6964 61.896C59.3792 60.2034 61.7548 56.7478 62.484 56.2071C64.6294 54.1384 66.9062 54.4988 67.7765 54.9376Z" fill="#FFC234"/>
<path fill-rule="evenodd" clip-rule="evenodd" d="M61.5661 62.8281C63.0249 64.3758 65.8986 64.3021 68.0126 62.3119C70.1266 60.322 70.3718 57.4592 68.9129 55.9114C67.4538 54.3637 64.5801 54.4374 62.4664 56.4276C60.3524 58.4175 60.1073 61.2803 61.5661 62.8281ZM61.121 63.2468C62.8841 65.1175 66.1577 64.8981 68.4322 62.7567C70.7067 60.6153 71.1214 57.3631 69.358 55.4924C67.5949 53.6218 64.3216 53.8411 62.0471 55.9825C59.7724 58.1239 59.3579 61.3764 61.121 63.2468Z" fill="#FFE7AD"/>
<path fill-rule="evenodd" clip-rule="evenodd" d="M67.1738 55.8068L66.8917 55.6455C66.8624 55.6287 66.8256 55.6399 66.8097 55.6703L66.6124 56.0491C65.8311 55.7182 64.9792 55.8382 64.4577 56.4417C63.5515 57.4901 64.5951 58.9904 64.8032 59.1869C64.8434 59.2271 64.8818 59.2662 64.9182 59.3051L64.1074 60.8632C63.7871 60.5821 63.5047 60.1676 63.3149 59.8279C63.2827 59.7707 63.2124 59.7488 63.1549 59.7792L62.561 60.0907C62.5045 60.1202 62.48 60.1897 62.5072 60.248C62.8921 61.0738 63.4341 61.5223 63.67 61.7039L63.2086 62.5909C63.1932 62.6204 63.2041 62.6572 63.2329 62.6726L63.5427 62.8411C63.5718 62.8571 63.6085 62.8454 63.6239 62.8153L64.0688 61.9525C66.1021 62.946 67.5385 60.4266 66.1284 59.0437C65.9897 58.9076 65.8699 58.7798 65.7672 58.66L66.5512 57.1397C66.852 57.3929 67.1259 57.7512 67.3123 58.0475C67.3466 58.1021 67.4161 58.121 67.472 58.0896C67.6583 57.9849 67.9216 57.8343 68.0659 57.7443C68.1133 57.7145 68.1311 57.654 68.1085 57.6024C67.8489 56.9994 67.4526 56.5493 67.0059 56.2588L67.197 55.8877C67.2119 55.8587 67.2021 55.8228 67.1738 55.8068ZM65.3452 57.0878C65.5902 56.783 65.8827 56.763 66.1737 56.893L65.4632 58.2575C65.037 57.5955 65.2148 57.2499 65.3452 57.0878ZM64.4984 61.1196L65.2345 59.6932C65.6905 60.3617 65.4917 60.7708 65.3527 60.9175C65.0764 61.2109 64.7814 61.2388 64.4984 61.1196Z" fill="white"/>
<path d="M3.69288 0.348145C2.15872 0.348145 0.915039 1.59111 0.915039 3.12439C0.915039 4.65767 2.15872 5.90065 3.69288 5.90065H10.0838C10.5019 5.90065 10.8985 5.80831 11.2542 5.64291L12.8615 6.61165L12.1281 5.00412C12.5835 4.50963 12.8616 3.84949 12.8616 3.12439C12.8616 1.59111 11.618 0.348145 10.0838 0.348145H3.69288Z" fill="white"/>
<path d="M5.37843 3.12455C5.37843 3.46112 5.10178 3.73399 4.7605 3.73399C4.41922 3.73399 4.14258 3.46112 4.14258 3.12455C4.14258 2.78798 4.41922 2.51514 4.7605 2.51514C5.10178 2.51514 5.37843 2.78798 5.37843 3.12455Z" fill="#1E1E2D"/>
<path d="M7.50638 3.12455C7.50638 3.46112 7.22971 3.73399 6.88846 3.73399C6.54718 3.73399 6.27051 3.46112 6.27051 3.12455C6.27051 2.78798 6.54718 2.51514 6.88846 2.51514C7.22971 2.51514 7.50638 2.78798 7.50638 3.12455Z" fill="#1E1E2D"/>
<path d="M9.01734 3.73399C9.35862 3.73399 9.63526 3.46112 9.63526 3.12455C9.63526 2.78798 9.35862 2.51514 9.01734 2.51514C8.67606 2.51514 8.39941 2.78798 8.39941 3.12455C8.39941 3.46112 8.67606 3.73399 9.01734 3.73399Z" fill="#1E1E2D"/>
<path d="M22.1977 64.7051L21.9452 62.1807H19.4688L20.3044 64.7051H22.1977Z" fill="#FEBFAE"/>
<path d="M6.79921 62.6874L9.26053 60.1643L6.79924 58.5244L5.34766 61.8675L6.79921 62.6874Z" fill="#FEBFAE"/>
<path d="M19.7415 65.8507C19.7693 66.1654 20.005 66.2098 20.1194 66.1928C20.522 66.2133 21.0259 66.2319 21.5713 66.2429C23.3937 66.2793 25.6781 66.229 26.1826 65.863C26.2744 65.7964 26.2964 65.716 26.262 65.6258C26.1675 65.3774 25.6473 65.054 24.9832 64.7316C24.1639 64.3339 23.1255 63.938 22.3964 63.6878C22.2835 63.6415 22.0656 63.5888 22.097 63.7509C22.1105 63.9226 22.0585 64.0639 21.964 64.1763C21.6188 64.587 20.7063 64.6081 20.3525 64.2878C20.0502 64.0139 19.9182 64.1544 19.89 64.2588C19.8289 64.6584 19.7138 65.5361 19.7415 65.8507Z" fill="white"/>
<path d="M19.7412 65.8507C19.769 66.1654 20.0047 66.2098 20.1191 66.1928C20.5216 66.213 21.0256 66.2319 21.5709 66.2428C23.3934 66.2793 25.6778 66.229 26.1823 65.8629C26.2741 65.7961 26.2961 65.716 26.2617 65.6255C25.6637 66.1539 21.6656 65.9958 19.7412 65.8507Z" fill="#C4C4C4"/>
<path d="M19.7412 65.8507C19.769 66.1654 20.0047 66.2098 20.1191 66.1928C20.5216 66.213 21.0256 66.2319 21.5709 66.2428C23.3934 66.2793 25.6778 66.229 26.1823 65.8629C26.2741 65.7961 26.2961 65.716 26.2617 65.6255C25.6637 66.1539 21.6656 65.9958 19.7412 65.8507Z" fill="#0C1229"/>
<path d="M19.7412 65.8507C19.769 66.1654 20.0047 66.2098 20.1191 66.1928C20.5216 66.213 21.0256 66.2319 21.5709 66.2428C23.3934 66.2793 25.6778 66.229 26.1823 65.8629C26.2741 65.7961 26.2961 65.716 26.2617 65.6255C25.6637 66.1539 21.6656 65.9958 19.7412 65.8507Z" fill="#CCE0FF"/>
<path d="M4.84379 62.0674C4.71202 62.3546 4.8948 62.5098 5.00264 62.5516C5.34235 62.7686 5.77097 63.034 6.23937 63.3132C7.80476 64.2466 9.81448 65.3332 10.4342 65.2646C10.547 65.252 10.6058 65.1932 10.6207 65.0979C10.6615 64.8354 10.3698 64.2969 9.95248 63.6883C9.4376 62.9374 8.73141 62.0796 8.22183 61.5014C8.14678 61.4053 7.98346 61.252 7.93046 61.4082C7.85715 61.564 7.74193 61.6611 7.60428 61.712C7.10085 61.8981 6.29756 61.4649 6.14886 61.0116C6.02177 60.6243 5.83753 60.681 5.76131 60.7576C5.51038 61.0744 4.97557 61.7801 4.84379 62.0674Z" fill="white"/>
<path d="M4.84378 62.0674C4.71204 62.3546 4.89479 62.5098 5.00266 62.5516C5.34234 62.7683 5.77096 63.034 6.23936 63.3132C7.80477 64.2466 9.81447 65.333 10.4342 65.2646C10.547 65.252 10.6059 65.1932 10.6207 65.0976C9.83946 65.2608 6.44391 63.1455 4.84378 62.0674Z" fill="#C4C4C4"/>
<path d="M4.84378 62.0674C4.71204 62.3546 4.89479 62.5098 5.00266 62.5516C5.34234 62.7683 5.77096 63.034 6.23936 63.3132C7.80477 64.2466 9.81447 65.333 10.4342 65.2646C10.547 65.252 10.6059 65.1932 10.6207 65.0976C9.83946 65.2608 6.44391 63.1455 4.84378 62.0674Z" fill="#0C1229"/>
<path d="M4.84378 62.0674C4.71204 62.3546 4.89479 62.5098 5.00266 62.5516C5.34234 62.7683 5.77096 63.034 6.23936 63.3132C7.80477 64.2466 9.81447 65.333 10.4342 65.2646C10.547 65.252 10.6059 65.1932 10.6207 65.0976C9.83946 65.2608 6.44391 63.1455 4.84378 62.0674Z" fill="#CCE0FF"/>
<path d="M10.8644 50.5224C11.3612 49.6713 11.4302 40.8928 13.742 37.6477C16.5421 37.1718 18.2464 40.4946 18.0335 42.1259C17.8206 43.7572 15.5848 51.304 15.0673 52.0281L9.26126 60.7318L6.42871 58.9008C7.70029 56.4626 10.3676 51.3735 10.8644 50.5224Z" fill="#232533"/>
<path d="M9.26126 60.7318L6.42871 58.9008C6.76895 58.2483 7.20913 57.4061 7.68093 56.5063C9.84984 57.2631 12.5156 54.0462 13.9314 51.7757C15.3471 49.5052 13.742 44.3333 12.3657 40.9905C12.7079 39.6651 13.1519 38.4759 13.742 37.6477C16.5421 37.1718 18.2464 40.4946 18.0335 42.1259C17.8206 43.7572 15.5848 51.304 15.0673 52.0281L9.26126 60.7318Z" fill="#1E1E2D"/>
<path d="M15.5716 32.5688C16.6793 32.5688 19.7352 32.5688 19.7352 32.5688L22.267 62.2458H19.2951C17.8313 54.5026 13.8674 42.6217 13.2997 40.4231C12.3713 36.8279 14.464 32.5688 15.5716 32.5688Z" fill="#232533"/>
<path d="M9.07129 44.7116C9.07129 44.7116 21.567 44.3961 21.8194 42.3147C22.0719 40.2334 19.7125 31.4006 20.5832 28.1869C20.6291 28.0174 20.6833 27.8664 20.7466 27.7365C21.8494 25.6973 19.9262 23.7718 19.9262 23.7718C19.9262 23.7718 19.1688 22.9519 18.7902 22.195C18.5224 21.6597 18.112 21.0759 17.528 20.8706C18.3484 22.3212 17.2124 22.5735 15.3823 20.9337C14.3303 21.3623 12.821 22.8543 13.1909 24.1116C13.3455 25.3598 13.4243 26.5699 13.4412 27.7365C13.4433 27.8875 13.4445 28.0376 13.4446 28.1869C13.4542 38.0673 9.07129 44.7116 9.07129 44.7116Z" fill="#0066FF"/>
<path opacity="0.4" d="M9.07129 44.7118C9.07129 44.7118 21.567 44.3963 21.8194 42.3151C21.9968 40.8533 20.8855 36.0605 20.5101 32.2236C19.9262 42.7567 13.2365 42.5044 10.6931 41.5583C9.81731 43.5809 9.07129 44.7118 9.07129 44.7118Z" fill="#98AEFF"/>
<path opacity="0.7" d="M13.4414 27.7363C14.5621 28.6912 19.2953 29.3852 20.7468 27.7363C20.6836 27.8662 20.6294 28.0172 20.5835 28.1868C19.0428 29.6373 15.1301 29.0698 13.4449 28.1868C13.4447 28.0374 13.4436 27.8873 13.4414 27.7363Z" fill="#0066FF"/>
<path d="M19.9271 23.7718C19.9271 23.7718 19.1698 22.9519 18.7911 22.195C18.5233 21.6597 18.1129 21.0759 17.5289 20.8706C18.2862 22.3212 17.3396 22.5735 15.3832 20.9337C14.3312 21.3623 12.822 22.8543 13.1918 24.1116C13.3465 25.3598 13.4252 26.5699 13.4421 27.7365C14.5628 28.6914 19.296 29.3851 20.7475 27.7365C21.8503 25.6973 19.9271 23.7718 19.9271 23.7718Z" fill="#2C74F5"/>
<path d="M15.3816 20.9337C17.338 22.5736 18.2846 22.3213 17.5273 20.8706C17.6113 20.9001 17.6916 20.9375 17.7685 20.9813C17.7183 20.9515 19.0166 22.0462 17.8187 22.4455C16.6474 22.765 15.4671 21.6443 15.0234 21.1105C15.1462 21.04 15.2666 20.9805 15.3816 20.9337Z" fill="#2671E1"/>
<path fill-rule="evenodd" clip-rule="evenodd" d="M23.5135 32.0049C23.4856 31.8556 23.5842 31.7118 23.7337 31.6838L38.7054 28.89C38.8547 28.862 38.9987 28.9608 39.0267 29.1101C39.0546 29.2595 38.9559 29.4035 38.8065 29.4312L23.8348 32.2251C23.6853 32.253 23.5414 32.1545 23.5135 32.0049Z" fill="#45154F"/>
<path d="M23.0212 30.9588C22.062 30.9045 21.3075 30.4956 21.0501 30.2979L20.1387 31.7878C20.5804 31.831 21.6806 32.1065 22.5474 32.8638C23.4143 33.6215 24.4563 33.2038 24.8689 32.9C25.267 32.5947 24.5215 32.1392 24.099 31.9497C24.0145 31.9119 23.9459 31.6167 24.2274 31.6534C24.6801 31.7487 24.7948 31.5341 24.7955 31.4151C24.6038 31.2855 23.9804 31.0132 23.0212 30.9588Z" fill="#FEBFAE"/>
<path d="M14.2068 28.2164L13.1699 23.854C13.9306 28.1237 13.4888 28.8806 15.3191 29.8898L20.4941 32.3495V32.0445C19.0381 31.2951 16.4726 29.9728 15.601 29.5173C14.655 29.0227 14.2774 28.444 14.2068 28.2164Z" fill="#0066FF"/>
<path d="M14.2068 28.2169L13.1699 23.8544C13.3626 21.123 16.0073 22.0059 16.3919 23.7088C16.6484 24.8442 16.7464 26.0137 16.8968 26.7362C17.0472 27.4587 17.4419 27.73 17.591 27.8085L21.6301 30.5207L21.0621 32.3498C19.7096 31.6539 16.547 30.012 15.601 29.5176C14.655 29.0233 14.2774 28.4442 14.2068 28.2169Z" fill="#518FFF"/>
<path d="M19.5498 31.5684L20.5064 29.7656L20.7046 29.8987L19.7776 31.6861L19.5498 31.5684Z" fill="#0066FF"/>
<path d="M18.4854 31.0168L19.6112 29.1646L20.1369 29.5175L19.0639 31.3166C18.8729 31.2178 18.679 31.1172 18.4854 31.0168Z" fill="#0066FF"/>
<path d="M21.1006 30.1655L20.2148 31.9132C20.3548 31.9856 20.4885 32.0545 20.6142 32.1195L21.4128 30.3753L21.1006 30.1655Z" fill="#0066FF"/>
<path d="M17.5285 20.8712L17.4995 19.2052L15.4147 18.8506L15.3828 20.9342C15.8815 21.3997 16.458 21.8807 17.2387 22.0935C18.0194 22.3062 17.9363 21.4457 17.5285 20.8712Z" fill="#FEBFAE"/>
<path d="M16.0771 18.9634L17.4987 19.2052L17.5206 20.4582L16.0771 18.9634Z" fill="#E99D89"/>
<path d="M17.9798 19.4706C17.0863 19.6838 15.5085 19.546 14.9405 18.5998C14.8778 18.4954 14.7265 18.0728 14.625 18.0323C13.9939 17.7799 13.2082 16.7168 13.6883 16.3168C14.108 15.9673 15.8475 15.2821 18.2322 14.4878C18.5871 14.6651 19.1058 15.4462 19.1689 15.9508C19.2793 16.8338 19.3682 19.1394 17.9798 19.4706Z" fill="#FEBFAE"/>
<path d="M17.3401 12.6197C17.6653 12.6493 18.4578 12.9123 19.0256 13.728C19.5236 14.4434 19.33 15.2794 19.1153 15.7333C19.0069 15.4273 18.6767 14.7524 18.2223 14.5001C17.7806 15.5723 16.2659 16.1399 15.4455 16.3922C15.0669 16.5814 15.6348 17.9059 15.2562 17.8429C15.1831 17.4014 14.6503 16.1021 13.994 16.203C13.4891 16.3291 13.3629 17.2752 14.6882 18.0321C14.8144 18.1582 14.8144 18.3474 14.9928 18.614C14.3245 18.9809 13.504 16.668 13.2367 16.8968C12.9419 17.1491 12.6737 18.028 12.8157 19.0919C12.9576 20.1558 12.0468 20.9242 11.5737 21.1754C11.071 21.3232 10.1897 21.5035 10.6865 21.0424C11.4696 19.735 11.194 18.7889 10.4648 17.7798C10.2726 17.5138 9.89699 16.6892 10.4648 15.5899C11.0325 14.4905 12.2686 14.4816 12.8157 14.6146C13.0079 14.7032 13.3008 14.8154 13.6141 14.26C14.6882 12.3557 16.3938 12.4276 17.3401 12.6197Z" fill="#232533"/>
<path d="M12.8584 14.6266L13.4895 14.5005V17.0865L13.1108 17.0234L12.8584 14.6266Z" fill="#04050D"/>
</svg>
