<svg width="133" height="58" viewBox="0 0 133 58" fill="none" xmlns="http://www.w3.org/2000/svg">
<circle cx="91" cy="10" r="10" fill="#EA001B"/>
<circle cx="107" cy="10" r="10" fill="#F79F1A"/>
<path d="M64.3461 29.5455H65.7125L68.9256 37.3935H69.0364L72.2495 29.5455H73.6159V39H72.5449V31.8168H72.4526L69.498 39H68.464L65.5094 31.8168H65.4171V39H64.3461V29.5455ZM77.8504 39.1662C77.4011 39.1662 76.9933 39.0816 76.627 38.9123C76.2608 38.7399 75.97 38.4922 75.7545 38.169C75.5391 37.8428 75.4314 37.4489 75.4314 36.9872C75.4314 36.581 75.5114 36.2517 75.6714 35.9993C75.8315 35.7438 76.0454 35.5438 76.3131 35.3991C76.5809 35.2545 76.8763 35.1468 77.1995 35.076C77.5257 35.0021 77.8535 34.9437 78.1828 34.9006C78.6137 34.8452 78.963 34.8036 79.2307 34.7759C79.5016 34.7451 79.6985 34.6944 79.8216 34.6236C79.9478 34.5528 80.0109 34.4297 80.0109 34.2543V34.2173C80.0109 33.7618 79.8863 33.4079 79.637 33.1555C79.3908 32.9032 79.0168 32.777 78.5152 32.777C77.9951 32.777 77.5873 32.8909 77.2918 33.1186C76.9964 33.3464 76.7886 33.5895 76.6686 33.848L75.6345 33.4787C75.8192 33.0478 76.0654 32.7124 76.3731 32.4723C76.684 32.2292 77.0225 32.0599 77.3888 31.9645C77.7581 31.866 78.1212 31.8168 78.4782 31.8168C78.706 31.8168 78.9676 31.8445 79.2631 31.8999C79.5616 31.9522 79.8493 32.0614 80.1263 32.2276C80.4064 32.3938 80.6388 32.6446 80.8234 32.9801C81.0081 33.3156 81.1004 33.7649 81.1004 34.3281V39H80.0109V38.0398H79.9555C79.8817 38.1937 79.7586 38.3583 79.5862 38.5337C79.4139 38.7092 79.1846 38.8584 78.8983 38.9815C78.6121 39.1046 78.2628 39.1662 77.8504 39.1662ZM78.0166 38.1875C78.4475 38.1875 78.8106 38.1029 79.1061 37.9336C79.4046 37.7643 79.6293 37.5458 79.7801 37.2781C79.934 37.0103 80.0109 36.7287 80.0109 36.4332V35.4361C79.9648 35.4915 79.8632 35.5423 79.7062 35.5884C79.5523 35.6315 79.3738 35.67 79.1707 35.7038C78.9707 35.7346 78.7752 35.7623 78.5844 35.7869C78.3967 35.8085 78.2443 35.8269 78.1274 35.8423C77.8443 35.8793 77.5796 35.9393 77.3334 36.0224C77.0902 36.1024 76.8933 36.224 76.7425 36.3871C76.5947 36.5471 76.5209 36.7656 76.5209 37.0426C76.5209 37.4212 76.6609 37.7074 76.941 37.9013C77.2241 38.0921 77.5827 38.1875 78.0166 38.1875ZM88.1117 33.4972L87.133 33.7741C87.0714 33.611 86.9806 33.4525 86.8606 33.2987C86.7437 33.1417 86.5836 33.0124 86.3805 32.9109C86.1774 32.8093 85.9173 32.7585 85.6003 32.7585C85.1664 32.7585 84.8047 32.8585 84.5154 33.0586C84.2292 33.2556 84.0861 33.5064 84.0861 33.8111C84.0861 34.0819 84.1846 34.2958 84.3816 34.4528C84.5785 34.6097 84.8863 34.7405 85.3049 34.8452L86.3574 35.1037C86.9914 35.2576 87.4638 35.493 87.7747 35.81C88.0855 36.1239 88.2409 36.5286 88.2409 37.0241C88.2409 37.4304 88.124 37.7936 87.8901 38.1136C87.6593 38.4337 87.3361 38.6861 86.9206 38.8707C86.5051 39.0554 86.022 39.1477 85.4711 39.1477C84.7478 39.1477 84.1492 38.9908 83.6752 38.6768C83.2013 38.3629 82.9012 37.9044 82.775 37.3011L83.8091 37.0426C83.9076 37.4242 84.0938 37.7105 84.3677 37.9013C84.6447 38.0921 85.0063 38.1875 85.4526 38.1875C85.9604 38.1875 86.3636 38.0798 86.6621 37.8643C86.9637 37.6458 87.1145 37.3842 87.1145 37.0795C87.1145 36.8333 87.0284 36.6271 86.856 36.4609C86.6837 36.2917 86.419 36.1655 86.062 36.0824L84.8801 35.8054C84.2308 35.6515 83.7537 35.413 83.449 35.0898C83.1474 34.7636 82.9966 34.3558 82.9966 33.8665C82.9966 33.4664 83.109 33.1125 83.3336 32.8047C83.5614 32.4969 83.8707 32.2553 84.2615 32.0799C84.6555 31.9045 85.1017 31.8168 85.6003 31.8168C86.302 31.8168 86.8529 31.9706 87.253 32.2784C87.6562 32.5862 87.9424 32.9924 88.1117 33.4972ZM92.9648 31.9091V32.8324H89.29V31.9091H92.9648ZM90.3611 30.2102H91.4506V36.9688C91.4506 37.2765 91.4952 37.5073 91.5844 37.6612C91.6768 37.812 91.7937 37.9136 91.9353 37.9659C92.0799 38.0152 92.2323 38.0398 92.3923 38.0398C92.5123 38.0398 92.6108 38.0336 92.6878 38.0213C92.7647 38.0059 92.8263 37.9936 92.8724 37.9844L93.094 38.9631C93.0202 38.9908 92.9171 39.0185 92.7847 39.0462C92.6524 39.0769 92.4846 39.0923 92.2815 39.0923C91.9738 39.0923 91.6721 39.0262 91.3767 38.8938C91.0843 38.7615 90.8412 38.5599 90.6473 38.2891C90.4565 38.0182 90.3611 37.6766 90.3611 37.2642V30.2102ZM97.5004 39.1477C96.8172 39.1477 96.2278 38.9969 95.7323 38.6953C95.2399 38.3906 94.8598 37.9659 94.5921 37.4212C94.3274 36.8733 94.195 36.2363 94.195 35.5099C94.195 34.7836 94.3274 34.1435 94.5921 33.5895C94.8598 33.0324 95.2322 32.5985 95.7093 32.2876C96.1894 31.9737 96.7495 31.8168 97.3896 31.8168C97.759 31.8168 98.1237 31.8783 98.4838 32.0014C98.8438 32.1245 99.1716 32.3246 99.4671 32.6016C99.7625 32.8755 99.998 33.2386 100.173 33.6911C100.349 34.1435 100.437 34.7005 100.437 35.3622V35.8239H94.9706V34.8821H99.3286C99.3286 34.482 99.2486 34.125 99.0885 33.8111C98.9316 33.4972 98.7069 33.2494 98.4145 33.0678C98.1252 32.8862 97.7836 32.7955 97.3896 32.7955C96.9557 32.7955 96.5802 32.9032 96.2632 33.1186C95.9493 33.331 95.7077 33.608 95.5384 33.9496C95.3692 34.2912 95.2845 34.6574 95.2845 35.0483V35.6761C95.2845 36.2116 95.3769 36.6656 95.5615 37.038C95.7493 37.4073 96.0093 37.6889 96.3417 37.8828C96.6741 38.0736 97.0603 38.169 97.5004 38.169C97.7867 38.169 98.0452 38.129 98.276 38.049C98.5099 37.9659 98.7115 37.8428 98.8808 37.6797C99.05 37.5135 99.1808 37.3073 99.2732 37.0611L100.326 37.3565C100.215 37.7135 100.029 38.0275 99.7671 38.2983C99.5055 38.5661 99.1824 38.7753 98.7977 38.9261C98.413 39.0739 97.9806 39.1477 97.5004 39.1477ZM102.094 39V31.9091H103.146V32.9801H103.22C103.35 32.6293 103.583 32.3446 103.922 32.1261C104.261 31.9076 104.642 31.7983 105.067 31.7983C105.147 31.7983 105.247 31.7998 105.367 31.8029C105.487 31.806 105.578 31.8106 105.639 31.8168V32.9247C105.602 32.9155 105.518 32.9016 105.385 32.8832C105.256 32.8616 105.119 32.8509 104.975 32.8509C104.63 32.8509 104.322 32.9232 104.051 33.0678C103.783 33.2094 103.571 33.4064 103.414 33.6587C103.26 33.908 103.183 34.1927 103.183 34.5128V39H102.094ZM109.596 39.1477C108.931 39.1477 108.358 38.9908 107.878 38.6768C107.398 38.3629 107.029 37.9305 106.77 37.3796C106.512 36.8287 106.383 36.1993 106.383 35.4915C106.383 34.7713 106.515 34.1358 106.78 33.5849C107.047 33.0309 107.42 32.5985 107.897 32.2876C108.377 31.9737 108.937 31.8168 109.577 31.8168C110.076 31.8168 110.525 31.9091 110.925 32.0938C111.325 32.2784 111.653 32.5369 111.908 32.8693C112.164 33.2017 112.322 33.5895 112.384 34.0327H111.294C111.211 33.7095 111.027 33.4233 110.741 33.174C110.457 32.9216 110.076 32.7955 109.596 32.7955C109.171 32.7955 108.799 32.9062 108.478 33.1278C108.161 33.3464 107.914 33.6557 107.735 34.0558C107.56 34.4528 107.472 34.919 107.472 35.4545C107.472 36.0024 107.558 36.4794 107.731 36.8857C107.906 37.2919 108.152 37.6074 108.469 37.832C108.789 38.0567 109.165 38.169 109.596 38.169C109.879 38.169 110.136 38.1198 110.367 38.0213C110.597 37.9228 110.793 37.7812 110.953 37.5966C111.113 37.4119 111.227 37.1903 111.294 36.9318H112.384C112.322 37.3504 112.17 37.7274 111.927 38.0629C111.687 38.3952 111.368 38.6599 110.971 38.8569C110.577 39.0508 110.119 39.1477 109.596 39.1477ZM116.063 39.1662C115.614 39.1662 115.206 39.0816 114.84 38.9123C114.474 38.7399 114.183 38.4922 113.967 38.169C113.752 37.8428 113.644 37.4489 113.644 36.9872C113.644 36.581 113.724 36.2517 113.884 35.9993C114.044 35.7438 114.258 35.5438 114.526 35.3991C114.794 35.2545 115.089 35.1468 115.412 35.076C115.739 35.0021 116.066 34.9437 116.396 34.9006C116.827 34.8452 117.176 34.8036 117.444 34.7759C117.714 34.7451 117.911 34.6944 118.035 34.6236C118.161 34.5528 118.224 34.4297 118.224 34.2543V34.2173C118.224 33.7618 118.099 33.4079 117.85 33.1555C117.604 32.9032 117.23 32.777 116.728 32.777C116.208 32.777 115.8 32.8909 115.505 33.1186C115.209 33.3464 115.002 33.5895 114.881 33.848L113.847 33.4787C114.032 33.0478 114.278 32.7124 114.586 32.4723C114.897 32.2292 115.235 32.0599 115.602 31.9645C115.971 31.866 116.334 31.8168 116.691 31.8168C116.919 31.8168 117.18 31.8445 117.476 31.8999C117.774 31.9522 118.062 32.0614 118.339 32.2276C118.619 32.3938 118.852 32.6446 119.036 32.9801C119.221 33.3156 119.313 33.7649 119.313 34.3281V39H118.224V38.0398H118.168C118.095 38.1937 117.971 38.3583 117.799 38.5337C117.627 38.7092 117.397 38.8584 117.111 38.9815C116.825 39.1046 116.476 39.1662 116.063 39.1662ZM116.229 38.1875C116.66 38.1875 117.024 38.1029 117.319 37.9336C117.618 37.7643 117.842 37.5458 117.993 37.2781C118.147 37.0103 118.224 36.7287 118.224 36.4332V35.4361C118.178 35.4915 118.076 35.5423 117.919 35.5884C117.765 35.6315 117.587 35.67 117.384 35.7038C117.184 35.7346 116.988 35.7623 116.797 35.7869C116.61 35.8085 116.457 35.8269 116.34 35.8423C116.057 35.8793 115.792 35.9393 115.546 36.0224C115.303 36.1024 115.106 36.224 114.955 36.3871C114.808 36.5471 114.734 36.7656 114.734 37.0426C114.734 37.4212 114.874 37.7074 115.154 37.9013C115.437 38.0921 115.796 38.1875 116.229 38.1875ZM121.302 39V31.9091H122.354V32.9801H122.428C122.558 32.6293 122.791 32.3446 123.13 32.1261C123.469 31.9076 123.85 31.7983 124.275 31.7983C124.355 31.7983 124.455 31.7998 124.575 31.8029C124.695 31.806 124.786 31.8106 124.847 31.8168V32.9247C124.81 32.9155 124.726 32.9016 124.593 32.8832C124.464 32.8616 124.327 32.8509 124.183 32.8509C123.838 32.8509 123.53 32.9232 123.259 33.0678C122.991 33.2094 122.779 33.4064 122.622 33.6587C122.468 33.908 122.391 34.1927 122.391 34.5128V39H121.302ZM128.6 39.1477C128.01 39.1477 127.488 38.9985 127.036 38.6999C126.583 38.3983 126.229 37.9736 125.974 37.4258C125.718 36.8749 125.591 36.224 125.591 35.473C125.591 34.7282 125.718 34.0819 125.974 33.5341C126.229 32.9863 126.585 32.5631 127.04 32.2646C127.496 31.966 128.022 31.8168 128.619 31.8168C129.081 31.8168 129.445 31.8937 129.713 32.0476C129.984 32.1984 130.19 32.3707 130.332 32.5646C130.476 32.7554 130.589 32.9124 130.669 33.0355H130.761V29.5455H131.85V39H130.798V37.9105H130.669C130.589 38.0398 130.475 38.2029 130.327 38.3999C130.179 38.5937 129.969 38.7676 129.695 38.9215C129.421 39.0723 129.056 39.1477 128.6 39.1477ZM128.748 38.169C129.185 38.169 129.555 38.0552 129.856 37.8274C130.158 37.5966 130.387 37.2781 130.544 36.8718C130.701 36.4625 130.779 35.9901 130.779 35.4545C130.779 34.9252 130.703 34.462 130.549 34.065C130.395 33.6649 130.167 33.354 129.865 33.1325C129.564 32.9078 129.191 32.7955 128.748 32.7955C128.287 32.7955 127.902 32.9139 127.594 33.1509C127.289 33.3848 127.06 33.7034 126.906 34.1065C126.755 34.5066 126.68 34.956 126.68 35.4545C126.68 35.9593 126.757 36.4179 126.911 36.8303C127.068 37.2396 127.299 37.5658 127.603 37.8089C127.911 38.049 128.293 38.169 128.748 38.169Z" fill="white"/>
</svg>
